<?xml version="1.0" encoding="UTF-8"?>
<svg version="1.1" xmlns="http://www.w3.org/2000/svg" width="16" height="20">
<path d="M0 0 C10.14444444 -0.61111111 10.14444444 -0.61111111 13.84375 2.03125 C16.51620288 5.71071411 16.58102866 8.4613852 16.3125 12.8125 C16.209375 15.184375 16.10625 17.55625 16 20 C10.72 20 5.44 20 0 20 C0 13.4 0 6.8 0 0 Z M2 2 C2 7.28 2 12.56 2 18 C5.96 18 9.92 18 14 18 C14 14.37 14 10.74 14 7 C12.35 7 10.7 7 9 7 C9 5.35 9 3.7 9 2 C6.69 2 4.38 2 2 2 Z " fill="#003D9A" transform="translate(0,0)"/>
<path d="M0 0 C2.64 0 5.28 0 8 0 C8 0.66 8 1.32 8 2 C5.36 2 2.72 2 0 2 C0 1.34 0 0.68 0 0 Z " fill="#003D9B" transform="translate(4,14)"/>
<path d="M0 0 C2.64 0 5.28 0 8 0 C8 0.66 8 1.32 8 2 C5.36 2 2.72 2 0 2 C0 1.34 0 0.68 0 0 Z " fill="#003D9B" transform="translate(4,10)"/>
</svg>
